<svg width="206" height="41" viewBox="0 0 206 41" fill="none" xmlns="http://www.w3.org/2000/svg">
<rect x="9.19531" y="3.46973" width="33.7163" height="33.7163" rx="5.36395" fill="white"/>
<path fill-rule="evenodd" clip-rule="evenodd" d="M14.5593 3.46875C11.5968 3.46875 9.19531 5.87027 9.19531 8.8327V31.8211C9.19531 34.7835 11.5968 37.185 14.5593 37.185H37.5476C40.5101 37.185 42.9116 34.7835 42.9116 31.8211V8.83271C42.9116 5.87027 40.5101 3.46875 37.5476 3.46875H14.5593ZM34.8517 23.0029C34.7288 23.4849 35.2543 23.851 35.563 23.461C35.7939 23.1691 36.0113 22.8499 36.2117 22.5031C38.0239 19.3661 37.1764 16.1512 35.2309 15.0279C34.977 14.8813 34.7016 14.7688 34.4106 14.6908C34.0349 14.5901 33.7864 15.01 33.9683 15.3539C34.7423 16.8171 35.1851 18.5151 35.1851 20.326C35.1851 21.2533 35.069 22.1511 34.8517 23.0029ZM19.6113 27.3829C19.5461 27.3121 19.4622 27.2613 19.3694 27.2356C17.4919 26.7148 15.6905 25.3344 14.5174 23.3037C12.4244 19.6805 13.1244 15.3596 16.0809 13.6526C17.141 13.0406 18.3473 12.8477 19.5551 13.0191C19.7143 13.0417 19.8757 12.9909 19.9911 12.879C21.6036 11.3146 23.7277 10.3643 26.0552 10.3643C28.3809 10.3643 30.5035 11.3132 32.1156 12.8754C32.231 12.9872 32.3924 13.038 32.5515 13.0153C33.76 12.8434 34.967 13.0361 36.0277 13.6485C38.9843 15.3555 39.6843 19.6764 37.5912 23.2996C36.4196 25.3278 34.6211 26.7074 32.746 27.2296C32.6533 27.2554 32.5695 27.3063 32.5044 27.3771C30.8527 29.1756 28.573 30.2876 26.0552 30.2876C23.5401 30.2876 21.2625 29.178 19.6113 27.3829ZM18.1399 15.358C18.3216 15.014 18.073 14.5943 17.6973 14.695C17.4066 14.773 17.1314 14.8855 16.8778 15.032C14.9323 16.1552 14.0848 19.3702 15.897 22.5072C16.0987 22.8563 16.3176 23.1774 16.5502 23.4708C16.8592 23.8605 17.3843 23.4939 17.261 23.0121C17.0422 22.1576 16.9252 21.2567 16.9252 20.326C16.9252 18.5168 17.3672 16.8203 18.1399 15.358ZM32.3653 24.7229C34.3333 21.1142 33.4068 16.6254 30.7837 15.0021C29.3764 14.1312 27.653 14.1908 26.0538 14.9902C24.4545 14.1908 22.7311 14.1312 21.3238 15.0021C18.7007 16.6254 17.7742 21.1142 19.7422 24.7229C21.1753 27.3507 23.7481 28.7873 26.0538 28.7472C28.3594 28.7873 30.9322 27.3507 32.3653 24.7229ZM30.1113 20.4952C30.8726 20.2204 31.3275 19.5301 31.1273 18.9534C30.927 18.3766 30.1475 18.1318 29.3862 18.4066C28.6249 18.6813 28.17 19.3716 28.3702 19.9484C28.5704 20.5251 29.3499 20.7699 30.1113 20.4952ZM30.8899 18.877C30.6796 18.6474 30.1179 18.3528 29.4943 18.8823C29.4464 18.9229 29.4352 19.0025 29.4694 19.06C29.5036 19.1176 29.5701 19.1312 29.618 19.0906C30.1433 18.6446 30.5943 18.8986 30.7467 19.0651C30.7903 19.1127 30.8576 19.1091 30.8972 19.0572C30.9367 19.0053 30.9335 18.9246 30.8899 18.877ZM30.7681 19.4769C30.7853 19.6635 30.598 19.8333 30.3498 19.8561C30.1015 19.879 29.8863 19.7462 29.8692 19.5596C29.852 19.373 30.0393 19.2032 30.2876 19.1803C30.5358 19.1575 30.751 19.2902 30.7681 19.4769ZM23.1028 21.3093C24.0017 21.3093 24.7304 20.7682 24.7304 20.1006C24.7304 19.433 24.0017 18.8919 23.1028 18.8919C22.204 18.8919 21.4753 19.433 21.4753 20.1006C21.4753 20.7682 22.204 21.3093 23.1028 21.3093ZM24.4794 19.7586C24.3328 19.5108 23.8805 19.1375 23.2156 19.498C23.1646 19.5257 23.1394 19.5956 23.1593 19.6541C23.1793 19.7127 23.2369 19.7377 23.288 19.71C23.848 19.4064 24.2078 19.7219 24.3141 19.9016C24.3445 19.9529 24.4061 19.9625 24.4518 19.9231C24.4974 19.8836 24.5098 19.81 24.4794 19.7586ZM24.3734 20.4058C24.3734 20.5742 24.1942 20.7107 23.9731 20.7107C23.752 20.7107 23.5728 20.5742 23.5728 20.4058C23.5728 20.2374 23.752 20.1009 23.9731 20.1009C24.1942 20.1009 24.3734 20.2374 24.3734 20.4058ZM25.2111 18.3354C24.5406 17.8191 22.7891 16.7411 20.6941 17.8019C20.5291 17.8855 20.1612 18.2036 20.4433 18.5144C20.5446 18.6535 20.8382 18.778 21.0033 18.6944C22.7832 17.7931 24.254 18.3929 24.7392 18.7665C24.8825 18.8768 25.1042 18.8697 25.2346 18.7507C25.3649 18.6317 25.3544 18.4457 25.2111 18.3354ZM26.9072 19.1548C27.1771 18.1473 28.0824 15.8326 30.9036 15.8184C31.1259 15.8173 31.7189 15.9693 31.6745 16.5028C31.679 16.7267 31.4857 17.0488 31.2633 17.0499C28.8663 17.062 27.8801 18.6478 27.6848 19.3768C27.6272 19.592 27.4063 19.7169 27.1916 19.6556C26.9768 19.5943 26.8495 19.3701 26.9072 19.1548ZM29.6983 24.3159C28.9608 25.4048 26.9574 27.7393 23.8938 26.1029C23.6524 25.9739 23.0769 25.4381 23.3606 24.8037C23.4547 24.524 23.8065 24.2386 24.0479 24.3676C26.6509 25.758 28.4199 24.3731 28.9535 23.5852C29.1111 23.3525 29.4056 23.3275 29.6112 23.5293C29.8169 23.731 29.8558 24.0832 29.6983 24.3159ZM28.7568 11.974C27.698 11.5871 25.0021 10.8845 22.3861 12.7187C22.1799 12.8633 21.7547 13.3354 22.2244 13.6047C22.4002 13.7327 22.8375 13.7865 23.0437 13.6419C25.1429 12.17 26.0207 12.3143 27.9119 12.6251C28.023 12.6433 28.1377 12.6622 28.2563 12.6813C28.4825 12.764 28.7477 12.6141 28.8967 12.4396C29.0457 12.2651 28.9831 12.0567 28.7568 11.974Z" fill="#3058D0"/>
<path d="M61.4009 29.8271C60.5671 29.9906 59.7498 30.0601 58.9488 30.0356C58.1477 30.0111 57.4326 29.8558 56.8032 29.5697C56.1738 29.2836 55.6997 28.8341 55.381 28.221C55.0949 27.6734 54.9396 27.1176 54.9151 26.5536C54.8987 25.9814 54.8905 25.3357 54.8905 24.6164V12.9077H57.4652V24.4938C57.4652 25.0251 57.4693 25.4869 57.4775 25.8793C57.4939 26.2716 57.5797 26.6026 57.735 26.8724C58.0292 27.3791 58.4951 27.6693 59.1327 27.7429C59.7784 27.8083 60.5345 27.7797 61.4009 27.657V29.8271ZM52.3526 18.6456V16.5858H61.4009V18.6456H52.3526ZM63.7022 29.8271V16.5858H65.9826V19.7981L65.6639 19.3812C65.8273 18.9562 66.0398 18.568 66.3014 18.2165C66.563 17.8568 66.8654 17.5626 67.2087 17.3337C67.5438 17.0885 67.9157 16.9005 68.3244 16.7697C68.7412 16.6308 69.1663 16.5491 69.5995 16.5245C70.0327 16.4918 70.4495 16.5123 70.85 16.5858V18.9889C70.4168 18.8745 69.9346 18.8418 69.4033 18.8908C68.8802 18.9399 68.3979 19.1074 67.9566 19.3935C67.5397 19.6632 67.2087 19.9902 66.9635 20.3743C66.7264 20.7585 66.5548 21.1876 66.4485 21.6617C66.3423 22.1276 66.2891 22.6221 66.2891 23.1452V29.8271H63.7022ZM76.0747 30.195C75.0939 30.195 74.2724 30.0151 73.6104 29.6555C72.9483 29.2877 72.4456 28.8054 72.1023 28.2088C71.7672 27.6039 71.5997 26.9419 71.5997 26.2226C71.5997 25.5523 71.7182 24.9638 71.9552 24.4571C72.1922 23.9503 72.5437 23.5212 73.0096 23.1697C73.4755 22.8101 74.0477 22.5199 74.7261 22.2992C75.3146 22.1276 75.9807 21.9764 76.7245 21.8456C77.4683 21.7148 78.2489 21.5922 79.0663 21.4778C79.8918 21.3633 80.7092 21.2489 81.5184 21.1345L80.5866 21.6494C80.6029 20.6114 80.3822 19.843 79.9245 19.3444C79.475 18.8377 78.6985 18.5843 77.595 18.5843C76.9003 18.5843 76.2627 18.7478 75.6824 19.0747C75.1021 19.3935 74.6975 19.9248 74.4686 20.6686L72.0778 19.933C72.4048 18.7968 73.026 17.8936 73.9414 17.2234C74.865 16.5531 76.0911 16.218 77.6195 16.218C78.8047 16.218 79.8346 16.4224 80.7092 16.8311C81.5919 17.2316 82.2376 17.8691 82.6463 18.7437C82.8588 19.1769 82.9896 19.6346 83.0387 20.1169C83.0877 20.5991 83.1122 21.1181 83.1122 21.6739V29.8271H80.844V26.7988L81.2854 27.1911C80.7378 28.2047 80.0389 28.9607 79.1889 29.4593C78.347 29.9498 77.3089 30.195 76.0747 30.195ZM76.5284 28.0984C77.2558 28.0984 77.8811 27.9717 78.4042 27.7183C78.9273 27.4568 79.3483 27.1258 79.667 26.7252C79.9858 26.3247 80.1942 25.9079 80.2923 25.4747C80.4313 25.0823 80.5089 24.641 80.5253 24.1506C80.5498 23.6601 80.5621 23.2678 80.5621 22.9735L81.3958 23.2801C80.5866 23.4027 79.8509 23.513 79.1889 23.6111C78.5268 23.7092 77.9261 23.8073 77.3866 23.9053C76.8553 23.9953 76.3812 24.1056 75.9644 24.2364C75.6129 24.359 75.2982 24.5061 75.0203 24.6778C74.7506 24.8494 74.534 25.0578 74.3705 25.303C74.2152 25.5482 74.1376 25.8466 74.1376 26.1981C74.1376 26.5413 74.2234 26.8601 74.395 27.1544C74.5667 27.4404 74.8282 27.6693 75.1797 27.841C75.5312 28.0126 75.9807 28.0984 76.5284 28.0984ZM95.0989 29.8271V23.3168C95.0989 22.8019 95.054 22.2747 94.9641 21.7352C94.8823 21.1876 94.7189 20.6808 94.4737 20.2149C94.2366 19.749 93.8974 19.3731 93.456 19.087C93.0228 18.8009 92.4548 18.6579 91.7518 18.6579C91.2941 18.6579 90.8609 18.7355 90.4522 18.8908C90.0435 19.0379 89.6839 19.2791 89.3733 19.6142C89.0709 19.9493 88.8298 20.3907 88.6499 20.9383C88.4783 21.4859 88.3925 22.1521 88.3925 22.9368L86.7986 22.336C86.7986 21.1345 87.0234 20.076 87.4729 19.1605C87.9225 18.2369 88.5682 17.5176 89.4101 17.0027C90.252 16.4878 91.2696 16.2303 92.4629 16.2303C93.3784 16.2303 94.1467 16.3774 94.7679 16.6717C95.3891 16.9659 95.8918 17.3542 96.2759 17.8364C96.6683 18.3105 96.9666 18.8295 97.171 19.3935C97.3753 19.9575 97.5143 20.5092 97.5878 21.0487C97.6614 21.5881 97.6982 22.0622 97.6982 22.4709V29.8271H95.0989ZM85.7932 29.8271V16.5858H88.086V20.4111H88.3925V29.8271H85.7932ZM105.898 30.195C104.541 30.195 103.389 29.8925 102.44 29.2877C101.492 28.6828 100.765 27.8532 100.258 26.7988C99.7595 25.7444 99.5061 24.547 99.498 23.2065C99.5061 21.8415 99.7677 20.6359 100.283 19.5897C100.798 18.5353 101.533 17.7097 102.49 17.113C103.446 16.5164 104.594 16.218 105.935 16.218C107.381 16.218 108.616 16.5777 109.637 17.2969C110.667 18.0162 111.346 19.0012 111.673 20.2517L109.122 20.9874C108.869 20.2435 108.452 19.6673 107.872 19.2586C107.3 18.8418 106.642 18.6333 105.898 18.6333C105.056 18.6333 104.365 18.8336 103.826 19.2341C103.286 19.6264 102.886 20.1659 102.624 20.8525C102.363 21.5391 102.228 22.3237 102.22 23.2065C102.228 24.5715 102.539 25.6749 103.152 26.5168C103.773 27.3587 104.688 27.7797 105.898 27.7797C106.723 27.7797 107.39 27.5917 107.896 27.2157C108.411 26.8315 108.804 26.2839 109.073 25.5728L111.673 26.1858C111.239 27.4772 110.524 28.4703 109.527 29.1651C108.53 29.8517 107.32 30.195 105.898 30.195ZM122.973 29.8271V23.3168C122.973 22.8019 122.928 22.2747 122.838 21.7352C122.757 21.1876 122.593 20.6808 122.348 20.2149C122.111 19.749 121.772 19.3731 121.33 19.087C120.897 18.8009 120.329 18.6579 119.626 18.6579C119.168 18.6579 118.735 18.7355 118.327 18.8908C117.918 19.0379 117.558 19.2791 117.248 19.6142C116.945 19.9493 116.704 20.3907 116.524 20.9383C116.353 21.4859 116.267 22.1521 116.267 22.9368L114.673 22.336C114.673 21.1345 114.898 20.076 115.347 19.1605C115.797 18.2369 116.443 17.5176 117.284 17.0027C118.126 16.4878 119.144 16.2303 120.337 16.2303C121.253 16.2303 122.021 16.3774 122.642 16.6717C123.263 16.9659 123.766 17.3542 124.15 17.8364C124.543 18.3105 124.841 18.8295 125.045 19.3935C125.25 19.9575 125.389 20.5092 125.462 21.0487C125.536 21.5881 125.573 22.0622 125.573 22.4709V29.8271H122.973ZM113.668 29.8271V12.1721H115.96V21.6985H116.267V29.8271H113.668ZM130.066 35.7122L132.628 28.736L132.665 30.7957L126.89 16.5858H129.563L133.879 27.559H133.094L137.213 16.5858H139.813L132.505 35.7122H130.066ZM139.721 29.8271V27.1176H142.43V29.8271H139.721ZM153.382 29.8271C152.548 29.9906 151.731 30.0601 150.93 30.0356C150.129 30.0111 149.414 29.8558 148.784 29.5697C148.155 29.2836 147.681 28.8341 147.362 28.221C147.076 27.6734 146.921 27.1176 146.896 26.5536C146.88 25.9814 146.872 25.3357 146.872 24.6164V12.9077H149.447V24.4938C149.447 25.0251 149.451 25.4869 149.459 25.8793C149.475 26.2716 149.561 26.6026 149.716 26.8724C150.011 27.3791 150.476 27.6693 151.114 27.7429C151.76 27.8083 152.516 27.7797 153.382 27.657V29.8271ZM144.334 18.6456V16.5858H153.382V18.6456H144.334ZM160.934 30.195C159.618 30.195 158.461 29.9089 157.464 29.3367C156.475 28.7564 155.702 27.9513 155.147 26.9214C154.599 25.8834 154.325 24.6818 154.325 23.3168C154.325 21.8701 154.595 20.6155 155.134 19.5529C155.682 18.4903 156.442 17.6689 157.415 17.0885C158.388 16.5082 159.52 16.218 160.811 16.218C162.16 16.218 163.308 16.5327 164.256 17.1621C165.204 17.7833 165.911 18.6701 166.377 19.8226C166.851 20.9751 167.039 22.3442 166.941 23.9299H164.379V22.9981C164.362 21.4614 164.068 20.3253 163.496 19.5897C162.932 18.854 162.07 18.4862 160.909 18.4862C159.626 18.4862 158.661 18.8908 158.016 19.7C157.37 20.5092 157.047 21.678 157.047 23.2065C157.047 24.6614 157.37 25.7894 158.016 26.5904C158.661 27.3832 159.593 27.7797 160.811 27.7797C161.612 27.7797 162.303 27.5998 162.883 27.2402C163.472 26.8724 163.929 26.3493 164.256 25.6708L166.77 26.4678C166.255 27.653 165.474 28.5725 164.428 29.2264C163.382 29.8721 162.217 30.195 160.934 30.195ZM156.213 23.9299V21.9314H165.666V23.9299H156.213ZM174.866 30.195C173.509 30.195 172.357 29.8925 171.408 29.2877C170.46 28.6828 169.733 27.8532 169.226 26.7988C168.728 25.7444 168.474 24.547 168.466 23.2065C168.474 21.8415 168.736 20.6359 169.251 19.5897C169.766 18.5353 170.501 17.7097 171.458 17.113C172.414 16.5164 173.562 16.218 174.903 16.218C176.349 16.218 177.584 16.5777 178.605 17.2969C179.635 18.0162 180.314 19.0012 180.641 20.2517L178.09 20.9874C177.837 20.2435 177.42 19.6673 176.84 19.2586C176.268 18.8418 175.61 18.6333 174.866 18.6333C174.024 18.6333 173.333 18.8336 172.794 19.2341C172.254 19.6264 171.854 20.1659 171.592 20.8525C171.331 21.5391 171.196 22.3237 171.188 23.2065C171.196 24.5715 171.507 25.6749 172.12 26.5168C172.741 27.3587 173.656 27.7797 174.866 27.7797C175.691 27.7797 176.358 27.5917 176.864 27.2157C177.379 26.8315 177.772 26.2839 178.041 25.5728L180.641 26.1858C180.207 27.4772 179.492 28.4703 178.495 29.1651C177.498 29.8517 176.288 30.195 174.866 30.195ZM191.941 29.8271V23.3168C191.941 22.8019 191.896 22.2747 191.806 21.7352C191.725 21.1876 191.561 20.6808 191.316 20.2149C191.079 19.749 190.74 19.3731 190.298 19.087C189.865 18.8009 189.297 18.6579 188.594 18.6579C188.136 18.6579 187.703 18.7355 187.295 18.8908C186.886 19.0379 186.526 19.2791 186.216 19.6142C185.913 19.9493 185.672 20.3907 185.492 20.9383C185.321 21.4859 185.235 22.1521 185.235 22.9368L183.641 22.336C183.641 21.1345 183.866 20.076 184.315 19.1605C184.765 18.2369 185.411 17.5176 186.252 17.0027C187.094 16.4878 188.112 16.2303 189.305 16.2303C190.221 16.2303 190.989 16.3774 191.61 16.6717C192.231 16.9659 192.734 17.3542 193.118 17.8364C193.511 18.3105 193.809 18.8295 194.013 19.3935C194.218 19.9575 194.357 20.5092 194.43 21.0487C194.504 21.5881 194.541 22.0622 194.541 22.4709V29.8271H191.941ZM182.636 29.8271V12.1721H184.928V21.6985H185.235V29.8271H182.636Z" fill="#3058D0"/>
</svg>
